HIERARCHY
ROOT mixamorig:Hips
{
	OFFSET 0.000000 201.639420 0.000000
	CHANNELS 6 Xposition Yposition Zposition Xrotation Yrotation Zrotation
	JOINT mixamorig:Spine
	{
		OFFSET 0.006200 19.524994 -2.481800
		CHANNELS 3 Xrotation Yrotation Zrotation
		JOINT mixamorig:Spine1
		{
			OFFSET -0.000900 22.835007 -2.825400
			CHANNELS 3 Xrotation Yrotation Zrotation
			JOINT mixamorig:Spine2
			{
				OFFSET -0.020600 26.552490 -3.193300
				CHANNELS 3 Xrotation Yrotation Zrotation
				JOINT mixamorig:Neck
				{
					OFFSET -0.060000 30.701813 1.352200
					CHANNELS 3 Xrotation Yrotation Zrotation
					JOINT mixamorig:Head
					{
						OFFSET -0.087200 22.547607 3.670900
						CHANNELS 3 Xrotation Yrotation Zrotation
						JOINT mixamorig:HeadTop_End
						{
							OFFSET -0.830600 40.355194 7.893500
							CHANNELS 3 Xrotation Yrotation Zrotation
							End Site
							{
								OFFSET 0.000000 30.592346 0.000000
							}
						}
						JOINT mixamorig:RightEye
						{
							OFFSET -6.302100 18.118591 16.197100
							CHANNELS 3 Xrotation Yrotation Zrotation
							End Site
							{
								OFFSET 0.000000 30.592346 0.000000
							}
						}
						JOINT mixamorig:LeftEye
						{
							OFFSET 6.741500 18.382690 16.401899
							CHANNELS 3 Xrotation Yrotation Zrotation
							End Site
							{
								OFFSET 0.000000 30.592346 0.000000
							}
						}
					}
				}
				JOINT mixamorig:LeftShoulder
				{
					OFFSET 11.924900 18.230499 1.425400
					CHANNELS 3 Xrotation Yrotation Zrotation
					JOINT mixamorig:LeftArm
					{
						OFFSET 25.435989 -0.697632 -5.229300
						CHANNELS 3 Xrotation Yrotation Zrotation
						JOINT mixamorig:LeftForeArm
						{
							OFFSET 54.684776 0.000000 0.000000
							CHANNELS 3 Xrotation Yrotation Zrotation
							JOINT mixamorig:LeftHand
							{
								OFFSET 55.098175 0.000000 0.000000
								CHANNELS 3 Xrotation Yrotation Zrotation
								JOINT mixamorig:LeftHandMiddle1
								{
									OFFSET 23.369751 0.000000 0.000000
									CHANNELS 3 Xrotation Yrotation Zrotation
									JOINT mixamorig:LeftHandMiddle2
									{
										OFFSET 6.378677 0.000000 0.000000
										CHANNELS 3 Xrotation Yrotation Zrotation
										JOINT mixamorig:LeftHandMiddle3
										{
											OFFSET 6.148331 0.000000 0.000000
											CHANNELS 3 Xrotation Yrotation Zrotation
											JOINT mixamorig:LeftHandMiddle4
											{
												OFFSET 6.582504 0.000000 0.000000
												CHANNELS 3 Xrotation Yrotation Zrotation
												End Site
												{
													OFFSET -1.168900 6.395691 1.028606
												}
											}
										}
									}
								}
								JOINT mixamorig:LeftHandThumb1
								{
									OFFSET 7.235672 -3.848206 5.434273
									CHANNELS 3 Xrotation Yrotation Zrotation
									JOINT mixamorig:LeftHandThumb2
									{
										OFFSET 6.568451 -3.792297 3.792300
										CHANNELS 3 Xrotation Yrotation Zrotation
										JOINT mixamorig:LeftHandThumb3
										{
											OFFSET 6.063080 -3.500519 3.500518
											CHANNELS 3 Xrotation Yrotation Zrotation
											JOINT mixamorig:LeftHandThumb4
											{
												OFFSET 4.793182 -2.767334 2.767349
												CHANNELS 3 Xrotation Yrotation Zrotation
												End Site
												{
													OFFSET 0.101639 6.054260 1.275483
												}
											}
										}
									}
								}
								JOINT mixamorig:LeftHandIndex1
								{
									OFFSET 23.101074 -0.309540 4.992809
									CHANNELS 3 Xrotation Yrotation Zrotation
									JOINT mixamorig:LeftHandIndex2
									{
										OFFSET 6.226883 0.000000 0.000000
										CHANNELS 3 Xrotation Yrotation Zrotation
										JOINT mixamorig:LeftHandIndex3
										{
											OFFSET 6.094330 0.000000 0.000000
											CHANNELS 3 Xrotation Yrotation Zrotation
											JOINT mixamorig:LeftHandIndex4
											{
												OFFSET 5.482605 0.000000 0.000000
												CHANNELS 3 Xrotation Yrotation Zrotation
												End Site
												{
													OFFSET -1.427902 5.233032 0.797164
												}
											}
										}
									}
								}
								JOINT mixamorig:LeftHandRing1
								{
									OFFSET 22.299240 0.021149 -3.964172
									CHANNELS 3 Xrotation Yrotation Zrotation
									JOINT mixamorig:LeftHandRing2
									{
										OFFSET 6.321869 0.000000 0.000000
										CHANNELS 3 Xrotation Yrotation Zrotation
										JOINT mixamorig:LeftHandRing3
										{
											OFFSET 5.899796 0.000000 0.000000
											CHANNELS 3 Xrotation Yrotation Zrotation
											JOINT mixamorig:LeftHandRing4
											{
												OFFSET 6.517899 0.000000 0.000000
												CHANNELS 3 Xrotation Yrotation Zrotation
												End Site
												{
													OFFSET -1.637299 6.232208 0.980890
												}
											}
										}
									}
								}
								JOINT mixamorig:LeftHandPinky1
								{
									OFFSET 20.463791 -0.302338 -8.562233
									CHANNELS 3 Xrotation Yrotation Zrotation
									JOINT mixamorig:LeftHandPinky2
									{
										OFFSET 6.908646 0.000000 0.000000
										CHANNELS 3 Xrotation Yrotation Zrotation
										JOINT mixamorig:LeftHandPinky3
										{
											OFFSET 4.622849 0.000000 0.000000
											CHANNELS 3 Xrotation Yrotation Zrotation
											JOINT mixamorig:LeftHandPinky4
											{
												OFFSET 5.216080 0.000000 0.000000
												CHANNELS 3 Xrotation Yrotation Zrotation
												End Site
												{
													OFFSET -0.606308 5.116241 0.814926
												}
											}
										}
									}
								}
							}
						}
					}
				}
				JOINT mixamorig:RightShoulder
				{
					OFFSET -12.001300 18.284088 1.348900
					CHANNELS 3 Xrotation Yrotation Zrotation
					JOINT mixamorig:RightArm
					{
						OFFSET -25.308500 -0.751312 -5.164599
						CHANNELS 3 Xrotation Yrotation Zrotation
						JOINT mixamorig:RightForeArm
						{
							OFFSET -54.684429 0.000000 0.000000
							CHANNELS 3 Xrotation Yrotation Zrotation
							JOINT mixamorig:RightHand
							{
								OFFSET -55.150291 0.000000 0.000000
								CHANNELS 3 Xrotation Yrotation Zrotation
								JOINT mixamorig:RightHandMiddle1
								{
									OFFSET -23.317566 0.000000 0.000000
									CHANNELS 3 Xrotation Yrotation Zrotation
									JOINT mixamorig:RightHandMiddle2
									{
										OFFSET -6.378403 0.000000 0.000000
										CHANNELS 3 Xrotation Yrotation Zrotation
										JOINT mixamorig:RightHandMiddle3
										{
											OFFSET -6.148193 0.000000 0.000000
											CHANNELS 3 Xrotation Yrotation Zrotation
											JOINT mixamorig:RightHandMiddle4
											{
												OFFSET -6.583389 0.000000 0.000000
												CHANNELS 3 Xrotation Yrotation Zrotation
												End Site
												{
													OFFSET 1.171692 6.395905 1.029786
												}
											}
										}
									}
								}
								JOINT mixamorig:RightHandThumb1
								{
									OFFSET -7.190521 -3.860474 5.435846
									CHANNELS 3 Xrotation Yrotation Zrotation
									JOINT mixamorig:RightHandThumb2
									{
										OFFSET -6.567429 -3.791718 3.791708
										CHANNELS 3 Xrotation Yrotation Zrotation
										JOINT mixamorig:RightHandThumb3
										{
											OFFSET -6.062469 -3.500153 3.500166
											CHANNELS 3 Xrotation Yrotation Zrotation
											JOINT mixamorig:RightHandThumb4
											{
												OFFSET -4.792618 -2.767029 2.767022
												CHANNELS 3 Xrotation Yrotation Zrotation
												End Site
												{
													OFFSET -0.100327 6.053253 1.276754
												}
											}
										}
									}
								}
								JOINT mixamorig:RightHandIndex1
								{
									OFFSET -23.048981 -0.310791 4.992554
									CHANNELS 3 Xrotation Yrotation Zrotation
									JOINT mixamorig:RightHandIndex2
									{
										OFFSET -6.227539 0.000000 0.000000
										CHANNELS 3 Xrotation Yrotation Zrotation
										JOINT mixamorig:RightHandIndex3
										{
											OFFSET -6.095047 0.000000 0.000000
											CHANNELS 3 Xrotation Yrotation Zrotation
											JOINT mixamorig:RightHandIndex4
											{
												OFFSET -5.484772 0.000000 0.000000
												CHANNELS 3 Xrotation Yrotation Zrotation
												End Site
												{
													OFFSET 1.420593 5.237305 0.797056
												}
											}
										}
									}
								}
								JOINT mixamorig:RightHandRing1
								{
									OFFSET -22.246323 0.020569 -3.963762
									CHANNELS 3 Xrotation Yrotation Zrotation
									JOINT mixamorig:RightHandRing2
									{
										OFFSET -6.322128 0.000000 0.000000
										CHANNELS 3 Xrotation Yrotation Zrotation
										JOINT mixamorig:RightHandRing3
										{
											OFFSET -5.900024 0.000000 0.000000
											CHANNELS 3 Xrotation Yrotation Zrotation
											JOINT mixamorig:RightHandRing4
											{
												OFFSET -6.518356 0.000000 0.000000
												CHANNELS 3 Xrotation Yrotation Zrotation
												End Site
												{
													OFFSET 1.636398 6.232697 0.982186
												}
											}
										}
									}
								}
								JOINT mixamorig:RightHandPinky1
								{
									OFFSET -20.411011 -0.303314 -8.561701
									CHANNELS 3 Xrotation Yrotation Zrotation
									JOINT mixamorig:RightHandPinky2
									{
										OFFSET -6.907349 0.000000 0.000000
										CHANNELS 3 Xrotation Yrotation Zrotation
										JOINT mixamorig:RightHandPinky3
										{
											OFFSET -4.623840 0.000000 0.000000
											CHANNELS 3 Xrotation Yrotation Zrotation
											JOINT mixamorig:RightHandPinky4
											{
												OFFSET -5.218353 0.000000 0.000000
												CHANNELS 3 Xrotation Yrotation Zrotation
												End Site
												{
													OFFSET 0.602097 5.118835 0.816273
												}
											}
										}
									}
								}
							}
						}
					}
				}
			}
		}
	}
	JOINT mixamorig:LeftUpLeg
	{
		OFFSET 18.168400 -13.561905 -0.039000
		CHANNELS 3 Xrotation Yrotation Zrotation
		JOINT mixamorig:LeftLeg
		{
			OFFSET 0.577358 -80.825211 -3.695000
			CHANNELS 3 Xrotation Yrotation Zrotation
			JOINT mixamorig:LeftFoot
			{
				OFFSET -0.577356 -83.370262 -6.520700
				CHANNELS 3 Xrotation Yrotation Zrotation
				JOINT mixamorig:LeftToeBase
				{
					OFFSET 0.750401 -20.798306 25.135401
					CHANNELS 3 Xrotation Yrotation Zrotation
					JOINT mixamorig:LeftToe_End
					{
						OFFSET -0.000500 0.001200 19.917799
						CHANNELS 3 Xrotation Yrotation Zrotation
						End Site
						{
							OFFSET 0.000000 19.917805 0.000000
						}
					}
				}
			}
		}
	}
	JOINT mixamorig:RightUpLeg
	{
		OFFSET -18.162500 -13.585098 -0.041000
		CHANNELS 3 Xrotation Yrotation Zrotation
		JOINT mixamorig:RightLeg
		{
			OFFSET -0.595024 -80.945297 -3.631900
			CHANNELS 3 Xrotation Yrotation Zrotation
			JOINT mixamorig:RightFoot
			{
				OFFSET 0.595024 -83.218193 -6.561200
				CHANNELS 3 Xrotation Yrotation Zrotation
				JOINT mixamorig:RightToeBase
				{
					OFFSET -0.753601 -20.807106 25.115000
					CHANNELS 3 Xrotation Yrotation Zrotation
					JOINT mixamorig:RightToe_End
					{
						OFFSET 0.000299 0.001700 19.918200
						CHANNELS 3 Xrotation Yrotation Zrotation
						End Site
						{
							OFFSET 0.000000 19.918203 0.000000
						}
					}
				}
			}
		}
	}
}
MOTION
Frames: 4
Frame Time: 0.033333
-93.130241 195.592606 -208.915253 355.130112 11.347004 364.079682 0.408308 1.911568 -3.901469 0.829311 3.886299 -1.855886 0.860956 3.877372 -1.860529 28.538771 8.104080 10.810114 -11.660167 42.094647 -18.432099 0.000000 -0.000001 0.000000 0.000000 -0.000001 0.000000 0.000000 -0.000001 0.000000 0.497581 -0.319481 -15.820646 -18.135677 -11.590262 -30.422530 0.000009 -28.881602 0.000004 -26.862320 -8.597108 7.001606 -4.190524 2.403583 -54.991410 5.395813 5.833386 -85.529835 2.520846 4.813597 -55.261401 -0.000000 -0.000000 0.000000 -22.190241 15.789656 -5.306023 44.512138 12.273245 22.752417 -7.510310 13.841354 10.200463 0.000003 -0.000000 0.000000 1.660466 7.969605 -18.805423 3.915564 5.522691 -70.651825 3.345829 5.289300 -64.610352 -0.000001 -0.000000 0.000000 -0.089181 6.204312 -67.443105 3.406607 5.317587 -65.267614 2.149183 4.534266 -50.702717 -0.000004 0.000000 0.000001 12.544386 8.935715 -84.049064 3.453427 5.338811 -65.771874 3.299462 5.267139 -64.105977 -0.000001 0.000001 -0.000001 0.575290 2.338928 7.904062 -52.309297 8.536986 31.444869 0.000002 60.912372 -0.000005 -30.584279 2.281712 -3.559459 -1.483998 -0.940497 30.535170 1.009845 -2.897859 38.417946 0.580653 -2.253855 28.890450 -0.000004 0.000001 -0.000001 19.288529 11.414373 -15.122969 -13.200484 -28.490645 6.726559 -3.750280 11.659702 -2.387935 0.000001 0.000002 -0.000002 -2.975645 5.429847 19.998282 0.600268 -2.289008 29.385379 0.487517 -2.076204 26.424721 -0.000001 -0.000001 0.000003 -0.545555 -3.211645 39.188887 1.348412 -3.279222 44.695614 1.038582 -2.933673 38.983127 0.000003 0.000002 -0.000001 -3.870922 -0.512266 46.376090 1.222423 -3.147008 42.448232 1.252224 -3.179233 42.988432 0.000003 -0.000000 0.000002 -7.602535 6.689483 -5.934637 25.210315 2.031362 -0.108141 -12.771933 1.638620 3.797754 -0.266850 -2.894167 0.385546 -0.000000 0.000002 0.000000 -19.887593 -13.224666 -18.339376 16.231917 -7.928352 -2.829735 7.132357 -0.082143 10.066107 3.334289 -0.000017 0.000000 0.000000 -0.000003 0.000000 
-92.919495 195.619171 -208.667480 355.053942 11.418593 364.099735 0.414039 1.988820 -3.866706 0.829266 4.026449 -1.829049 0.861754 4.017361 -1.834200 28.251013 7.940646 10.510032 -11.911961 41.363161 -17.539234 0.000000 0.000001 -0.000000 0.000000 0.000001 -0.000000 0.000000 0.000001 -0.000000 0.395490 -0.261546 -16.708789 -17.487180 -10.660604 -30.466851 0.000014 -29.202884 0.000026 -24.090308 -8.415909 9.023047 -4.216305 2.398488 -55.066136 5.399532 5.833663 -85.566520 2.519753 4.812824 -55.248301 0.000001 -0.000000 0.000002 -22.237633 15.729851 -5.336835 44.814681 12.035100 21.975546 -7.233164 15.074981 10.456496 0.000000 0.000002 -0.000002 1.654431 7.950479 -18.813561 3.915457 5.522672 -70.650773 3.344061 5.288444 -64.590961 -0.000001 0.000000 -0.000000 -0.089152 6.204348 -67.443385 3.413849 5.320903 -65.345690 2.158220 4.541608 -50.816778 -0.000000 -0.000001 0.000001 12.544402 8.935712 -84.049057 3.474123 5.348026 -65.994060 3.318556 5.276331 -64.314017 -0.000001 -0.000004 0.000003 0.574916 2.290660 8.331445 -47.984579 7.902706 33.447542 0.000013 59.989975 -0.000019 -28.346207 -1.333760 0.182703 -1.164799 -1.362951 29.569176 1.006651 -2.893854 38.354972 0.598211 -2.285367 29.333852 0.000003 0.000001 -0.000001 20.105907 9.065266 -14.361465 -12.188230 -29.567694 6.740818 -2.286147 11.419277 -3.216707 0.000004 0.000001 -0.000000 -2.594962 4.597754 19.426124 0.600352 -2.289156 29.387490 0.487598 -2.076390 26.427207 0.000001 -0.000001 -0.000003 -0.107735 -3.692820 38.111325 1.337740 -3.268416 44.508764 1.091525 -2.997829 40.006518 -0.000001 -0.000000 0.000001 -3.666807 -0.555398 45.494326 1.215633 -3.139573 42.324299 1.243532 -3.169880 42.831256 -0.000001 0.000000 0.000001 -7.333677 6.675047 -5.983147 25.042200 1.962344 -0.139079 -12.796310 1.620960 3.870006 -0.240633 -2.906129 0.347617 -0.000000 0.000001 0.000000 -19.698921 -13.356498 -18.444414 16.144660 -7.905380 -2.812385 7.102035 -0.052476 10.144225 3.377106 0.000003 0.000001 -0.000000 -0.000000 -0.000000 
-92.711090 195.635742 -208.419327 355.013617 11.523989 364.087496 0.419576 2.052506 -3.831921 0.826139 4.142585 -1.793261 0.859336 4.134050 -1.797595 27.850730 7.663762 10.212490 -12.480642 40.130298 -16.411049 0.000000 0.000000 -0.000000 0.000000 0.000000 -0.000000 0.000000 0.000000 -0.000000 0.277913 -0.210121 -17.466395 -16.507874 -9.079802 -30.811185 -0.000020 -30.276692 -0.000010 -20.956614 -7.401064 11.206660 -4.242140 2.393465 -55.140851 5.403266 5.833944 -85.603212 2.518651 4.812075 -55.235173 -0.000001 0.000002 0.000003 -22.154897 15.601043 -5.299761 45.081240 11.692218 21.220634 -6.972734 16.251972 10.696227 0.000004 0.000002 0.000001 1.648342 7.931363 -18.821730 3.915359 5.522630 -70.649708 3.342276 5.287595 -64.571598 0.000000 0.000001 -0.000002 -0.089118 6.204375 -67.443569 3.421083 5.324200 -65.423752 2.151371 4.536050 -50.730393 0.000001 -0.000000 0.000002 12.544397 8.935729 -84.049064 3.494843 5.357184 -66.216205 3.337726 5.285456 -64.522106 -0.000002 -0.000001 -0.000000 0.585591 2.253489 8.791170 -43.322797 7.331556 35.636772 0.000037 58.526293 -0.000031 -24.726396 -4.334017 5.198504 -1.010704 -1.492298 28.392866 0.996868 -2.881443 38.160769 0.610727 -2.307449 29.645897 0.000002 -0.000002 0.000001 21.132020 7.515057 -13.407393 -11.824908 -29.954727 6.087608 -0.945494 10.706582 -3.715479 -0.000002 -0.000000 -0.000000 -2.236393 4.004898 18.362856 0.600495 -2.289383 29.390912 0.487729 -2.076654 26.430964 -0.000001 0.000001 -0.000003 0.281913 -4.146493 36.858259 1.323714 -3.254109 44.262044 1.142412 -3.057377 40.970166 -0.000002 0.000000 -0.000004 -3.480418 -0.552424 44.401093 1.201731 -3.124281 42.070058 1.227647 -3.152715 42.543520 0.000000 -0.000003 -0.000000 -7.135873 6.688943 -5.988843 24.934821 1.831311 -0.172193 -12.844467 1.599396 3.952465 -0.232299 -2.983667 0.335191 -0.000000 0.000001 0.000000 -19.526725 -13.458192 -18.506982 16.066797 -7.911571 -2.811467 7.065504 -0.058890 10.241455 3.424108 -0.000005 0.000004 -0.000000 -0.000000 -0.000000 
-92.510666 195.642914 -208.147339 354.980695 11.629936 364.076185 0.424464 2.116597 -3.775224 0.829546 4.258018 -1.719562 0.863600 4.249684 -1.723876 27.234184 7.255707 9.653438 -13.141777 38.269150 -14.849885 -0.000000 0.000001 -0.000000 -0.000000 0.000001 -0.000000 -0.000000 0.000001 -0.000000 0.172036 -0.049997 -18.288784 -15.661631 -7.626276 -31.441789 0.000008 -30.675315 0.000008 -17.851522 -6.178385 12.916228 -4.268013 2.388497 -55.215591 5.407001 5.834221 -85.639903 2.517544 4.811313 -55.222052 -0.000003 0.000000 0.000001 -22.072207 15.472281 -5.262313 45.348635 11.344550 20.469964 -6.715881 17.429990 10.931913 0.000000 0.000002 -0.000001 1.642254 7.912244 -18.829886 3.915254 5.522591 -70.648642 3.340482 5.286763 -64.552193 -0.000000 -0.000001 -0.000001 -0.089141 6.204382 -67.443726 3.428339 5.327505 -65.501815 2.144538 4.530473 -50.644039 0.000001 -0.000001 0.000001 12.544389 8.935702 -84.049057 3.515602 5.366229 -66.438391 3.356893 5.294523 -64.730140 0.000000 -0.000001 -0.000000 0.556715 2.263291 9.166414 -38.318215 6.533229 38.038129 -0.000044 57.026964 0.000041 -18.724038 -6.182074 8.374258 -0.973464 -1.424795 27.304211 0.983802 -2.864757 37.899979 0.620622 -2.324766 29.891230 0.000002 0.000002 0.000001 22.367821 6.897353 -12.266592 -11.893579 -30.078999 5.037285 0.015077 10.041428 -4.058088 -0.000003 0.000000 0.000000 -1.927290 3.542149 17.184314 0.600955 -2.290225 29.402592 0.488159 -2.077536 26.442920 -0.000002 -0.000001 -0.000002 0.636531 -4.599634 35.643824 1.305337 -3.235190 43.937808 1.190116 -3.111356 41.856369 0.000000 -0.000002 0.000002 -3.335728 -0.547175 43.496868 1.188917 -3.109984 41.833573 1.212854 -3.136485 42.273294 0.000001 0.000001 -0.000001 -6.951815 6.690223 -5.999466 24.851285 1.719033 -0.194557 -12.910815 1.580235 4.020330 -0.198449 -3.027674 0.286109 -0.000000 -0.000000 0.000000 -19.365608 -13.502553 -18.522640 16.039081 -7.911404 -2.879710 7.000794 -0.138975 10.387556 3.418290 0.000004 -0.001954 0.000000 -0.000002 0.000000 
